<?xml version="1.0" encoding="UTF-8"?>
<svg id="Layer_1" data-name="Layer 1" xmlns="http://www.w3.org/2000/svg" viewBox="302 334 588 588">
  <defs>
    <style>
      .cls-1 {
        fill: #f7941d;
      }

      .cls-2 {
        fill: #0077b6;
      }
    </style>
  </defs>
  <path class="cls-2" d="M778.46,641.68c-23.13-23.05-23.13-60.32,0-83.37.16-.16.31-.31.47-.47,58.04-58.04,94.82-131.7,106.41-211.49,0,0,0,0,0,0h-136.44s0,0,0,0c-22.93,98.67-106.23,174.45-208.7,186.16v134.95c102.47,11.71,185.77,87.49,208.7,186.16,0,0,0,0,0,0h136.44s0,0,0,0c-11.59-79.79-48.37-153.45-106.41-211.49-.16-.16-.31-.31-.47-.47Z"/>
  <rect class="cls-1" x="314.66" y="346.92" width="186.03" height="186.03" rx="16.64" ry="16.64"/>
</svg>