<svg width="128" height="52" viewBox="0 0 128 52" fill="none" xmlns="http://www.w3.org/2000/svg">
<path d="M47.5349 30.2717C45.1642 27.9085 45.1642 24.0883 47.5349 21.7267C47.5506 21.711 47.5664 21.6952 47.5837 21.6779C53.5316 15.729 57.3024 8.1784 58.4901 0H44.5066C42.1564 10.1152 33.6191 17.883 23.1169 19.0834V32.9165C33.6191 34.117 42.1564 41.8848 44.5066 52H58.4901C57.3024 43.8216 53.5316 36.271 47.5837 30.3221C47.5679 30.3063 47.5522 30.2906 47.5349 30.2733V30.2717Z" fill="#0077B6"/>
<path d="M17.3609 0.0566406H1.70526C0.763471 0.0566406 0 0.820235 0 1.76218V17.4204C0 18.3623 0.763471 19.1259 1.70526 19.1259H17.3609C18.3027 19.1259 19.0662 18.3623 19.0662 17.4204V1.76218C19.0662 0.820235 18.3027 0.0566406 17.3609 0.0566406Z" fill="#F7941D"/>
<path d="M90.3065 32.8095C90.0092 32.5247 89.6159 32.38 89.1282 32.38H80.0781C79.5888 32.38 79.2019 32.5232 78.9171 32.8095C78.6324 33.0959 78.4861 33.5585 78.4861 34.1941C78.4861 34.8297 78.6292 35.2671 78.9171 35.5645C79.2019 35.8603 79.5888 36.0098 80.0781 36.0098H89.1282C89.6159 36.0098 90.0076 35.8603 90.3065 35.5645C90.6022 35.2671 90.7517 34.8109 90.7517 34.1941C90.7517 33.5773 90.6022 33.0959 90.3065 32.8095Z" fill="#F7941D"/>
<path d="M127.998 19.6734V23.2717H125.516L121.759 25.6302C120.4 26.4798 119.189 27.1533 118.13 27.652C117.067 28.1523 116.071 28.5331 115.137 28.799C114.202 29.0649 113.296 29.2333 112.414 29.3088C111.533 29.3827 110.603 29.4221 109.628 29.4221H103.897V29.3906L103.864 29.4221C102.294 29.4221 101.079 29.1294 100.217 28.5457C99.3598 27.962 98.7903 27.0447 98.5135 25.7891H98.3231C98.0683 27.1076 97.5963 28.0422 96.9073 28.5929C96.2167 29.1451 95.1611 29.4221 93.739 29.4221H86.9243V29.3906L86.8913 29.4221H86.7308C84.884 29.4221 83.5327 29.0555 82.6722 28.3223C81.8132 27.5891 81.3287 26.376 81.2233 24.6752L76.2239 25.5044C76.268 25.9071 76.2979 26.2895 76.3199 26.6498C76.3404 27.0117 76.3514 27.3625 76.3514 27.7024C76.3514 29.0177 76.1988 30.2434 75.8904 31.3793C75.5837 32.5153 75.0882 33.5081 74.4117 34.3577C73.7321 35.2074 72.8606 35.8698 71.8003 36.3481C70.7385 36.8264 69.4643 37.0639 67.9792 37.0639H64.553L66.93 33.1824L66.985 33.1982C67.7763 33.4184 68.6053 33.4861 69.4171 33.3649C69.8748 33.2957 70.2886 33.1919 70.6551 33.0534C71.3772 32.7765 71.9608 32.3879 72.406 31.8907C72.8512 31.3919 73.1705 30.7925 73.3624 30.0907C73.5528 29.3906 73.6472 28.6055 73.6472 27.7354C73.6472 27.1627 73.6157 26.568 73.5528 25.9528C73.5528 25.9465 73.5528 25.9402 73.5512 25.9339C73.4348 24.8121 73.1233 23.7202 72.653 22.6959L71.8349 20.9085L75.365 19.7427L75.7489 22.0681L81.1918 21.176L80.399 18.4258L83.9621 17.7681V23.5329C83.9621 24.4235 84.1698 25.0292 84.5835 25.347C84.9972 25.6648 85.6815 25.8253 86.638 25.8253H95.5529C97.3147 25.8253 98.1957 24.9867 98.1957 23.3095L97.4028 18.0324L100.966 17.3747V23.3095C100.966 24.9867 101.795 25.8253 103.45 25.8253H109.626C110.666 25.8253 111.622 25.8033 112.492 25.7624C113.362 25.7199 114.212 25.6192 115.039 25.4587C115.868 25.2998 116.716 25.0685 117.588 24.7586C118.457 24.4518 119.423 24.0427 120.485 23.5329L122.683 22.4819V22.3214L117.779 21.2704L111.953 19.8355V22.4142H109.119V19.9488C109.119 18.7955 109.399 17.9364 109.963 17.3716C110.524 16.8067 111.317 16.5251 112.335 16.5251C112.612 16.5251 112.934 16.5566 113.305 16.6211C113.678 16.684 114.278 16.8241 115.105 17.0396L122.173 18.8742C124.212 19.4107 125.963 19.6782 127.427 19.6782H128L127.998 19.6734Z" fill="#0077B6"/>
<path d="M99.2245 32.8095C98.9288 32.5247 98.5355 32.38 98.0463 32.38H96.6588C96.1695 32.38 95.7825 32.5232 95.4978 32.8095C95.2131 33.0959 95.0668 33.5585 95.0668 34.1941C95.0668 34.8297 95.2099 35.2671 95.4978 35.5645C95.7825 35.8603 96.1695 36.0098 96.6588 36.0098H98.0463C98.5355 36.0098 98.9272 35.8603 99.2245 35.5645C99.5218 35.2671 99.6697 34.8109 99.6697 34.1941C99.6697 33.5773 99.5218 33.0959 99.2245 32.8095Z" fill="#F7941D"/>
<path d="M124.942 13.3201C124.646 13.0354 124.253 12.8906 123.764 12.8906H122.376C121.887 12.8906 121.5 13.0338 121.215 13.3201C120.927 13.6081 120.784 14.0691 120.784 14.7047C120.784 15.3404 120.927 15.7778 121.215 16.0751C121.5 16.3709 121.887 16.5204 122.376 16.5204H123.764C124.253 16.5204 124.644 16.3709 124.942 16.0751C125.239 15.7778 125.387 15.3215 125.387 14.7047C125.387 14.088 125.239 13.6065 124.942 13.3201Z" fill="#F7941D"/>
<path d="M127.998 25.797H126.468L118.983 30.0923C117.314 31.0505 115.432 31.5713 113.508 31.6106L103.162 31.8167V36.0098H127.997V25.7954L127.998 25.797Z" fill="#F7941D"/>
<path d="M73.1705 51.2212H70.4852L68.5283 46.9007C67.9761 47.1681 67.3767 47.3444 66.7302 47.4325V51.2212H64.5546V38.8623H66.7302V45.2423C67.1628 45.1652 67.5529 45.0268 67.9053 44.827C68.4732 44.5028 68.942 44.067 69.3132 43.5179C69.6829 42.9688 69.9582 42.3489 70.136 41.6598C70.3153 40.9706 70.4034 39.5986 70.4034 38.8623H72.6121C72.6121 39.9007 72.4579 41.5559 72.1512 42.5125C71.8428 43.4676 71.3945 44.3203 70.803 45.0708C70.6614 45.2502 70.512 45.4217 70.3562 45.5822L73.1721 51.2212H73.1705Z" fill="#0077B6"/>
<path d="M81.5333 45.5366V51.2212H79.301V45.9488C79.301 45.4595 79.1925 45.0834 78.9754 44.8191C78.7583 44.5548 78.45 44.4242 78.0488 44.4242C76.9288 44.4242 76.3687 45.1904 76.3687 46.7229V51.2212H74.1365V38.8623H76.3687V44.0686H76.5827C76.666 43.4817 76.8643 43.0443 77.1836 42.7548C77.5029 42.4669 77.9859 42.3222 78.6325 42.3222C79.5559 42.3222 80.2685 42.6022 80.775 43.1623C81.28 43.7225 81.5317 44.5139 81.5317 45.535L81.5333 45.5366Z" fill="#0077B6"/>
<path d="M90.017 49.2277V45.9976C90.017 44.8443 89.6316 43.9663 88.8639 43.3653C88.0947 42.7643 86.9196 42.4527 85.3386 42.4307L83.4351 42.4056L83.2699 44.432L85.5022 44.4903C86.2872 44.5123 86.8802 44.6319 87.2782 44.849C87.6762 45.0661 87.876 45.4075 87.876 45.8748V45.9016C87.6935 45.8591 87.5095 45.8261 87.3286 45.8009C86.9793 45.7505 86.5656 45.7269 86.089 45.7269C84.8493 45.7269 83.8897 45.9881 83.2149 46.5089C82.54 47.0313 82.2018 47.7802 82.2018 48.7588C82.2018 49.599 82.4598 50.2472 82.9773 50.7035C83.4933 51.1598 84.2154 51.3879 85.1435 51.3879C85.6815 51.3879 86.144 51.3046 86.531 51.1362C86.918 50.9678 87.2184 50.7161 87.434 50.3778C87.6086 50.1009 87.7187 49.7674 87.7612 49.3772H87.9594L88.101 51.3046L91.2315 51.2212V49.4086L90.0202 49.2277H90.017ZM87.6322 48.5448C87.4702 48.8249 87.2263 49.0546 86.9023 49.2371C86.5782 49.4181 86.1739 49.5093 85.691 49.5093C85.2898 49.5093 84.9846 49.4307 84.777 49.2733C84.5678 49.1176 84.4639 48.891 84.4639 48.5936C84.4639 47.9344 85.0397 47.6055 86.1944 47.6055C86.5011 47.6055 86.7953 47.6134 87.0753 47.626C87.3144 47.637 87.5803 47.6748 87.8729 47.7361C87.865 48.0115 87.7832 48.2821 87.6322 48.5448Z" fill="#0077B6"/>
<path d="M99.1474 43.3527C98.5465 42.6667 97.6954 42.3222 96.5974 42.3222C95.3609 42.3222 94.6688 42.9043 94.5209 44.0686H94.2896V38.8623H92.0574V51.2212C92.4805 51.2715 92.8943 51.3108 93.3017 51.3407C93.7076 51.3706 94.1197 51.3864 94.5366 51.3864C96.2938 51.3864 97.6514 50.9395 98.611 50.0474C99.569 49.1537 100.049 47.8982 100.049 46.2776C100.049 45.0142 99.7484 44.0387 99.1458 43.3527H99.1474ZM97.0143 48.4992C96.5109 49.0232 95.8014 49.2859 94.8843 49.2859C94.6876 49.2859 94.4894 49.2812 94.2912 49.2733V46.3107C94.2912 45.0535 94.9173 44.4242 96.1695 44.4242C96.6808 44.4242 97.0741 44.5847 97.3525 44.9056C97.6294 45.2266 97.7678 45.6845 97.7678 46.2776C97.7678 47.2327 97.5161 47.9737 97.0143 48.4976V48.4992Z" fill="#0077B6"/>
<path d="M108.887 46.608C108.887 45.2124 108.547 44.1504 107.866 43.4188C107.184 42.6887 106.22 42.3222 104.974 42.3222C103.728 42.3222 102.714 42.7186 102.012 43.5101C101.312 44.3015 100.963 45.4107 100.963 46.8377C100.963 48.2648 101.375 49.4291 102.199 50.2126C103.022 50.9962 104.189 51.3879 105.701 51.3879C106.058 51.3879 106.467 51.3738 106.928 51.3454C107.389 51.3187 107.9 51.2558 108.462 51.1567L108.248 49.0483C107.847 49.1191 107.453 49.1758 107.07 49.2167C106.686 49.2576 106.296 49.278 105.901 49.278C105.021 49.278 104.345 49.0641 103.87 48.6361C103.606 48.397 103.415 48.098 103.297 47.7377H108.843C108.876 47.3805 108.891 47.0045 108.891 46.6096L108.887 46.608ZM103.187 46.1879C103.249 45.6939 103.398 45.2943 103.636 44.989C103.956 44.5737 104.408 44.366 104.992 44.366C105.53 44.366 105.948 44.5233 106.247 44.8348C106.547 45.1479 106.697 45.5979 106.697 46.1864H103.189L103.187 46.1879Z" fill="#0077B6"/>
<path d="M117.794 46.608C117.794 45.2124 117.454 44.1504 116.773 43.4188C116.092 42.6887 115.127 42.3222 113.881 42.3222C112.635 42.3222 111.619 42.7186 110.919 43.5101C110.219 44.3015 109.868 45.4107 109.868 46.8377C109.868 48.2648 110.28 49.4291 111.105 50.2126C111.929 50.9962 113.095 51.3879 114.607 51.3879C114.964 51.3879 115.373 51.3738 115.834 51.3454C116.294 51.3187 116.806 51.2558 117.366 51.1567L117.152 49.0483C116.751 49.1191 116.357 49.1758 115.974 49.2167C115.59 49.2576 115.2 49.278 114.805 49.278C113.927 49.278 113.249 49.0641 112.774 48.6361C112.51 48.397 112.319 48.098 112.201 47.7377H117.745C117.778 47.3805 117.794 47.0045 117.794 46.6096V46.608ZM112.096 46.1879C112.157 45.6939 112.307 45.2943 112.543 44.989C112.865 44.5737 113.317 44.366 113.899 44.366C114.437 44.366 114.855 44.5233 115.156 44.8348C115.454 45.1479 115.604 45.5979 115.604 46.1864H112.096V46.1879Z" fill="#0077B6"/>
<path d="M127.998 45.8748H125.774C125.774 45.3588 125.68 44.9875 125.489 44.7625C125.301 44.5375 124.995 44.4242 124.578 44.4242C124.034 44.4242 123.628 44.6885 123.359 45.2156C123.09 45.7442 122.955 46.4932 122.955 47.4655V49.3111H124.999V51.2227H118.885V49.3111H120.731V44.4006H119.214V42.4889H122.625L122.884 44.4588H123.194C123.282 43.0365 124.026 42.3237 125.426 42.3237C126.255 42.3237 126.891 42.629 127.333 43.2394C127.775 43.8499 127.997 44.7279 127.997 45.8764L127.998 45.8748Z" fill="#0077B6"/>
</svg>
